<?xml version="1.0" encoding="UTF-8"?>
<svg width="384" height="384" viewBox="0 0 512 512" fill="none" xmlns="http://www.w3.org/2000/svg">
  <rect width="512" height="512" rx="128" fill="#4F46E5"/>
  <path d="M256 112C176.5 112 112 176.5 112 256C112 335.5 176.5 400 256 400C335.5 400 400 335.5 400 256C400 176.5 335.5 112 256 112ZM256 368C194.1 368 144 317.9 144 256C144 194.1 194.1 144 256 144C317.9 144 368 194.1 368 256C368 317.9 317.9 368 256 368Z" fill="white"/>
  <path d="M288 192H224V224H192V288H224V320H288V288H320V224H288V192ZM288 256V288H224V256H192V224H224V192H288V224H320V256H288Z" fill="white"/>
</svg>