<?xml version="1.0" encoding="UTF-8"?>
<svg width="1200" height="630" viewBox="0 0 1200 630" fill="none" xmlns="http://www.w3.org/2000/svg">
  <rect width="1200" height="630" fill="#4CAF50"/>
  <rect x="50" y="50" width="1100" height="530" rx="20" fill="white" fill-opacity="0.1"/>
  
  <!-- Logo Symbol -->
  <g transform="translate(250, 180) scale(2.5)">
    <circle cx="60" cy="60" r="60" fill="white"/>
    <path d="M50 30C50 30 30 45 30 60C30 75 45 90 60 90C75 90 90 75 90 60C90 45 70 30 70 30" stroke="#4CAF50" stroke-width="8" stroke-linecap="round"/>
    <circle cx="60" cy="45" r="10" fill="#4CAF50"/>
  </g>
  
  <!-- Title -->
  <text x="600" y="350" font-family="Arial, sans-serif" font-size="72" font-weight="bold" fill="white" text-anchor="middle">NutriEasy</text>
  
  <!-- Tagline -->
  <text x="600" y="420" font-family="Arial, sans-serif" font-size="36" fill="white" text-anchor="middle">Smart Nutrition &amp; Meal Planning</text>
  
  <!-- Features -->
  <g transform="translate(350, 480)">
    <circle cx="20" cy="20" r="15" fill="white"/>
    <text x="50" y="28" font-family="Arial, sans-serif" font-size="24" fill="white">AI-Powered Recommendations</text>
  </g>
  
  <g transform="translate(700, 480)">
    <circle cx="20" cy="20" r="15" fill="white"/>
    <text x="50" y="28" font-family="Arial, sans-serif" font-size="24" fill="white">Personalized Meal Plans</text>
  </g>
  
  <g transform="translate(350, 530)">
    <circle cx="20" cy="20" r="15" fill="white"/>
    <text x="50" y="28" font-family="Arial, sans-serif" font-size="24" fill="white">Nutrition Goal Tracking</text>
  </g>
  
  <g transform="translate(700, 530)">
    <circle cx="20" cy="20" r="15" fill="white"/>
    <text x="50" y="28" font-family="Arial, sans-serif" font-size="24" fill="white">Health Analysis Tools</text>
  </g>
</svg>